<?xml version="1.0"?>
<svg xmlns="http://www.w3.org/2000/svg" height="512px" viewBox="0 0 512.002 512" width="512px" class=""><g><path d="m156.003906 140c38.597656 0 70-31.402344 70-70s-31.402344-70-70-70c-38.601562 0-70 31.402344-70 70s31.398438 70 70 70zm0-100c16.539063 0 30 13.460938 30 30 0 16.542969-13.460937 30-30 30-16.542968 0-30-13.457031-30-30 0-16.539062 13.457032-30 30-30zm0 0" data-original="#000000" class="active-path" data-old_color="#000000" fill="#FFFFFF"/><path d="m423.394531 218.667969c38.597657 0 70-31.402344 70-70 0-38.597657-31.402343-70-70-70-38.597656 0-70 31.402343-70 70 0 38.597656 31.402344 70 70 70zm0-100c16.539063 0 30 13.457031 30 30s-13.460937 30-30 30c-16.542969 0-30-13.457031-30-30s13.457031-30 30-30zm0 0" data-original="#000000" class="active-path" data-old_color="#000000" fill="#FFFFFF"/><path d="m423.394531 228.667969c-31.496093 0-59.203125 16.519531-74.921875 41.347656h-.011718c-20.105469 0-36.460938-16.355469-36.460938-36.460937 0-42.15625-34.296875-76.457032-76.457031-76.457032-24.304688 0-138.929688 0-159.082031 0-42.160157 0-76.460938 34.300782-76.460938 76.460938.00390625 9.777344.00390625 245.234375.00390625 258.441406 0 11.046875 8.95312475 20 19.99999975 20h472c11.042969 0 20-8.953125 20-20 0-60.511719 0-140.519531 0-174.722656 0-48.859375-39.75-88.609375-88.609375-88.609375zm0 40c26.800781 0 48.609375 21.804687 48.609375 48.609375v9.996094h-97.21875v-9.996094c0-26.804688 21.804688-48.609375 48.609375-48.609375zm-151.390625-35.113281c0 37.632812 27.332032 68.976562 63.183594 75.28125-.617188 6.515624-.328125 10.148437-.402344 18.4375h-103v-130.175782h3.761719c20.101563 0 36.457031 16.355469 36.457031 36.457032zm-80.21875-36.457032v130.179688h-71.5625v-130.179688zm-115.324218 0h3.757812v130.179688h-40.214844v-93.71875c0-20.105469 16.355469-36.460938 36.457032-36.460938zm395.542968 274.902344h-432v-104.726562h432zm0 0" data-original="#000000" class="active-path" data-old_color="#000000" fill="#FFFFFF"/></g> </svg>
